<svg width="32" height="32" viewBox="0 0 32 32" xmlns="http://www.w3.org/2000/svg">
  <!-- Beer Mug with Maryland Flag Pattern -->
  <defs>
    <!-- Maryland flag pattern for mug body -->
    <pattern id="maryland-flag" x="0" y="0" width="16" height="16" patternUnits="userSpaceOnUse">
      <!-- Calvert family arms (black and gold checkered) -->
      <rect x="0" y="0" width="8" height="8" fill="#000000"/>
      <rect x="8" y="8" width="8" height="8" fill="#000000"/>
      <rect x="8" y="0" width="8" height="8" fill="#FFD700"/>
      <rect x="0" y="8" width="8" height="8" fill="#FFD700"/>
      
      <!-- Crossland family arms (red and white cross) -->
      <rect x="4" y="4" width="8" height="8" fill="#FFFFFF"/>
      <rect x="6" y="2" width="4" height="12" fill="#FF0000"/>
      <rect x="2" y="6" width="12" height="4" fill="#FF0000"/>
    </pattern>
  </defs>
  
  <!-- Beer mug body -->
  <rect x="6" y="8" width="12" height="16" fill="url(#maryland-flag)" stroke="#000000" stroke-width="1"/>
  
  <!-- Beer foam -->
  <path d="M6 8 Q6 4 10 4 L14 4 Q18 4 18 8 L18 10 L6 10 Z" fill="#FFFFFF" stroke="#000000" stroke-width="1"/>
  
  <!-- Mug handle -->
  <rect x="18" y="12" width="3" height="8" fill="#000000"/>
  <rect x="19" y="13" width="1" height="6" fill="#333333"/>
</svg>